<?xml version="1.0" encoding="utf-8"?>
<svg version="1.0" xmlns="http://www.w3.org/2000/svg" viewBox="225 511 631 201" xml:space="preserve">
<style type="text/css">
	.st0{fill:#282525;stroke:#21362C;stroke-width:0.8587;stroke-miterlimit:8.5873;}
</style>
<path class="st0" d="M429.28,611c0-17.6,3.93-33.02,11.8-46.23c7.86-13.23,18.64-23.54,32.32-30.93
	c13.71-7.42,29.42-11.12,47.13-11.12c17.7,0,33.45,3.71,47.12,11.12c13.71,7.39,24.51,17.7,32.38,30.93
	c7.86,13.21,11.8,28.62,11.8,46.23c0,17.6-3.93,32.86-11.8,46.17c-7.86,13.29-18.66,23.62-32.38,31.04
	c-13.69,7.39-29.4,11.08-47.12,11.08c-17.73,0-33.42-3.69-47.13-11.08c-13.69-7.42-24.46-17.75-32.32-31.04
	C433.21,643.86,429.28,628.47,429.28,611z M456.84,611c0,12.97,2.63,24.41,7.92,34.29c5.27,9.9,12.66,17.58,22.16,23.07
	c9.52,5.48,20.73,8.22,33.59,8.22c12.86,0,24.06-2.74,33.5-8.22c9.42-5.49,16.77-13.17,22.06-23.07c5.28-9.88,7.92-21.3,7.92-34.29
	s-2.65-24.59-7.92-34.4c-5.28-9.81-12.64-17.47-22.06-22.96c-9.44-5.49-20.6-8.23-33.5-8.23c-12.9,0-24.08,2.74-33.59,8.23
	c-9.5,5.48-16.89,13.15-22.16,22.96C459.48,586.4,456.84,597.87,456.84,611z"/>
<path class="st0" d="M785.75,523.02c17.72,0,31.75,4.4,42.05,13.17c10.31,8.78,15.46,21.42,15.46,37.94s-4.87,28.39-14.57,37.05
	c-9.72,8.68-23.01,13.27-39.86,13.79l51.1,74.37h-31.64l-50.12-74.37h-51.62v74.37h-27.32V523.02H785.75z M706.55,602.74h75.41
	c22.48,0,33.72-9.44,33.72-28.36c0-18.92-11.24-28.36-33.72-28.36h-75.41V602.74z"/>
<path class="st0" d="M348.11,610.71l-13.61-4.42l12.18-7.51c6.55-4.04,12.64-8.85,18.1-14.33c5.22-5.22,9.43-11.73,12.49-19.35
	c3.12-7.7,4.7-17.25,4.7-28.42v-13.13h-28.74V531c0,10.41-1.91,19.33-5.66,26.51c-3.66,7.02-8.64,13.03-14.79,17.86
	c-5.74,4.49-12.15,8.55-19.07,12.06c-6.43,3.27-13.05,6.79-19.7,10.47c-6.19,3.42-12.06,7.62-17.48,12.49l-11.05,9.92v-96.76h-28.74
	v175.79h28.74v-22.89c0-10.34,2.07-19.27,6.14-26.52c3.96-7.09,9.34-13.25,16-18.3c6.22-4.72,13.09-9.03,20.45-12.81l2.19-1.12
	l2.39,0.58c16.65,4.01,28.16,10.31,35.21,19.28c7.08,8.97,10.52,21.7,10.52,38.9v22.89h28.74v-26.7c0-17.67-3.31-31.55-9.85-41.25
	C370.73,621.72,361.19,614.96,348.11,610.71L348.11,610.71z"/>
</svg>
