<?xml version="1.0" encoding="utf-8"?>
<!-- Generator: Adobe Illustrator 30.5.1, SVG Export Plug-In . SVG Version: 9.03 Build 0)  -->
<svg version="1.0" id="Capa_1" xmlns="http://www.w3.org/2000/svg" xmlns:xlink="http://www.w3.org/1999/xlink" x="0px" y="0px"
	 viewBox="0 0 1080 1350" style="enable-background:new 0 0 1080 1350;" xml:space="preserve">
<style type="text/css">
	.st0{fill:#282525;stroke:#21362C;stroke-width:0.8587;stroke-miterlimit:8.5873;}
	.st1{fill:#282525;}
</style>
<path class="st0" d="M429.28,611c0-17.6,3.93-33.02,11.8-46.23c7.86-13.23,18.64-23.54,32.32-30.93
	c13.71-7.42,29.42-11.12,47.13-11.12c17.7,0,33.45,3.71,47.12,11.12c13.71,7.39,24.51,17.7,32.38,30.93
	c7.86,13.21,11.8,28.62,11.8,46.23c0,17.6-3.93,32.86-11.8,46.17c-7.86,13.29-18.66,23.62-32.38,31.04
	c-13.69,7.39-29.4,11.08-47.12,11.08c-17.73,0-33.42-3.69-47.13-11.08c-13.69-7.42-24.46-17.75-32.32-31.04
	C433.21,643.86,429.28,628.47,429.28,611z M456.84,611c0,12.97,2.63,24.41,7.92,34.29c5.27,9.9,12.66,17.58,22.16,23.07
	c9.52,5.48,20.73,8.22,33.59,8.22c12.86,0,24.06-2.74,33.5-8.22c9.42-5.49,16.77-13.17,22.06-23.07c5.28-9.88,7.92-21.3,7.92-34.29
	s-2.65-24.59-7.92-34.4c-5.28-9.81-12.64-17.47-22.06-22.96c-9.44-5.49-20.6-8.23-33.5-8.23c-12.9,0-24.08,2.74-33.59,8.23
	c-9.5,5.48-16.89,13.15-22.16,22.96C459.48,586.4,456.84,597.87,456.84,611z"/>
<path class="st0" d="M785.75,523.02c17.72,0,31.75,4.4,42.05,13.17c10.31,8.78,15.46,21.42,15.46,37.94s-4.87,28.39-14.57,37.05
	c-9.72,8.68-23.01,13.27-39.86,13.79l51.1,74.37h-31.64l-50.12-74.37h-51.62v74.37h-27.32V523.02H785.75z M706.55,602.74h75.41
	c22.48,0,33.72-9.44,33.72-28.36c0-18.92-11.24-28.36-33.72-28.36h-75.41V602.74z"/>
<path class="st0" d="M348.11,610.71l-13.61-4.42l12.18-7.51c6.55-4.04,12.64-8.85,18.1-14.33c5.22-5.22,9.43-11.73,12.49-19.35
	c3.12-7.7,4.7-17.25,4.7-28.42v-13.13h-28.74V531c0,10.41-1.91,19.33-5.66,26.51c-3.66,7.02-8.64,13.03-14.79,17.86
	c-5.74,4.49-12.15,8.55-19.07,12.06c-6.43,3.27-13.05,6.79-19.7,10.47c-6.19,3.42-12.06,7.62-17.48,12.49l-11.05,9.92v-96.76h-28.74
	v175.79h28.74v-22.89c0-10.34,2.07-19.27,6.14-26.52c3.96-7.09,9.34-13.25,16-18.3c6.22-4.72,13.09-9.03,20.45-12.81l2.19-1.12
	l2.39,0.58c16.65,4.01,28.16,10.31,35.21,19.28c7.08,8.97,10.52,21.7,10.52,38.9v22.89h28.74v-26.7c0-17.67-3.31-31.55-9.85-41.25
	C370.73,621.72,361.19,614.96,348.11,610.71L348.11,610.71z"/>
<g transform="matrix(1, 0, 0, 1, 175, 574)">
	<g>
		<g>
			<g>
				<g transform="translate(0.84619, 47.055456)">
					<g>
						<path class="st1" d="M83.03,162.35c5.71,0,10.17,1.39,13.38,4.17c3.22,2.77,5.07,6.41,5.54,10.94l0.06,0.62h-8.75l-0.15-0.62
							c-1.14-5.71-4.54-8.56-10.21-8.56c-3.56,0-6.41,1.43-8.56,4.29c-2.16,2.85-3.23,6.74-3.23,11.69c0,5.29,1.07,9.37,3.23,12.23
							c2.15,2.85,4.96,4.27,8.44,4.27c2.79,0,5.03-0.78,6.73-2.33c1.69-1.57,2.83-3.75,3.42-6.54l0.12-0.65h8.71l-0.06,0.65
							c-0.47,4.74-2.43,8.49-5.85,11.27c-3.42,2.77-7.9,4.15-13.44,4.15c-6.18,0-11.16-2.03-14.92-6.08
							c-3.77-4.07-5.65-9.55-5.65-16.44c0-7.03,1.98-12.62,5.96-16.79C71.79,164.44,76.87,162.35,83.03,162.35z"/>
					</g>
				</g>
			</g>
			<g>
				<g transform="translate(51.800447, 47.055456)">
					<g>
						<path class="st1" d="M100.48,162.35c6.68,0,11.95,2.06,15.81,6.19c3.88,4.12,5.81,9.66,5.81,16.58
							c0,6.91-1.94,12.43-5.81,16.58c-3.86,4.14-9.14,6.21-15.81,6.21c-6.68,0-11.96-2.07-15.83-6.21
							c-3.88-4.15-5.81-9.68-5.81-16.58c0-6.93,1.92-12.46,5.77-16.58C88.44,164.41,93.74,162.35,100.48,162.35z M91.29,197.1
							c2.22,2.85,5.28,4.27,9.17,4.27c3.9,0,6.95-1.44,9.15-4.31c2.19-2.88,3.29-6.85,3.29-11.94c0-5.11-1.1-9.09-3.29-11.94
							c-2.2-2.86-5.24-4.29-9.12-4.29c-3.95,0-7.02,1.43-9.21,4.29c-2.2,2.85-3.29,6.83-3.29,11.96
							C87.98,190.26,89.08,194.24,91.29,197.1z"/>
					</g>
				</g>
			</g>
			<g>
				<g transform="translate(104.9906, 47.055456)">
					<g>
						<path class="st1" d="M137.41,207.02h-11.98l-18.02-33.25c0.21,3.99,0.31,8.47,0.31,13.46v19.79h-8.75v-43.77h11.6l18.4,33.88
							c-0.21-3.93-0.31-8.52-0.31-13.77v-20.1h8.69L137.41,207.02z"/>
					</g>
				</g>
			</g>
			<g>
				<g transform="translate(157.94289, 47.055456)">
					<g>
						<path class="st1" d="M131.15,162.35c5,0,8.82,1.25,11.46,3.75c2.64,2.5,4.21,5.84,4.73,10.02h-8.96
							c-0.25-2.28-1.02-4.05-2.29-5.31c-1.27-1.28-3.02-1.92-5.25-1.92c-1.82,0-3.3,0.45-4.44,1.33c-1.14,0.89-1.71,2.18-1.71,3.88
							c0,1.86,0.69,3.32,2.06,4.38c1.37,1.06,3.79,1.99,7.25,2.79c4.78,1.1,8.3,2.77,10.56,5.02c2.26,2.24,3.4,5.12,3.4,8.67
							c0,3.99-1.56,7.15-4.69,9.48c-3.12,2.32-6.95,3.48-11.48,3.48c-5.33,0-9.59-1.17-12.77-3.52c-3.17-2.34-4.96-5.78-5.38-10.31
							h8.94c0.47,2.32,1.53,4.12,3.17,5.4c1.65,1.27,3.62,1.9,5.92,1.9c2.03,0,3.73-0.51,5.1-1.52c1.38-1.01,2.06-2.34,2.06-4
							c0-1.86-0.67-3.36-2-4.5c-1.33-1.14-3.58-2.09-6.75-2.85c-4.92-1.18-8.58-2.76-11-4.73c-2.41-1.97-3.6-4.84-3.6-8.6
							c0-3.89,1.52-6.99,4.56-9.31C123.1,163.52,126.8,162.35,131.15,162.35z"/>
					</g>
				</g>
			</g>
			<g>
				<g transform="translate(203.66422, 47.055456)">
					<g>
						<path class="st1" d="M167.39,163.25v25.94c0,2.08-0.04,3.8-0.12,5.15c-0.29,3.97-1.91,7.23-4.85,9.77
							c-2.93,2.54-7.28,3.81-13.04,3.81c-5.79,0-10.16-1.27-13.1-3.81c-2.93-2.54-4.54-5.8-4.83-9.77
							c-0.08-1.34-0.12-3.06-0.12-5.15v-25.94h8.69v26.83c0,1.49,0.04,2.54,0.12,3.17c0.21,2.58,1.08,4.58,2.62,6
							c1.54,1.42,3.75,2.12,6.62,2.12c2.83,0,5.02-0.71,6.56-2.12c1.55-1.42,2.44-3.42,2.65-6c0.08-0.62,0.12-1.68,0.12-3.17v-26.83
							H167.39z"/>
					</g>
				</g>
			</g>
			<g>
				<g transform="translate(253.857324, 47.055456)">
					<g>
						<path class="st1" d="M180.18,199.73v7.29H148.6v-43.77h8.75v36.48H180.18z"/>
					</g>
				</g>
			</g>
			<g>
				<g transform="translate(293.013098, 47.055456)">
					<g>
						<path class="st1" d="M195.9,170.1h-14.83v36.92h-8.75V170.1h-14.85v-6.85h38.44V170.1z"/>
					</g>
				</g>
			</g>
			<g>
				<g transform="translate(339.447998, 47.055456)">
					<g>
						<path class="st1" d="M185.88,207.02h-8.75v-43.77h8.75V207.02z"/>
					</g>
				</g>
			</g>
			<g>
				<g transform="translate(370.136571, 47.055456)">
					<g>
						<path class="st1" d="M225.8,207.02h-11.98l-18.02-33.25c0.21,3.99,0.31,8.47,0.31,13.46v19.79h-8.75v-43.77h11.6l18.4,33.88
							c-0.21-3.93-0.31-8.52-0.31-13.77v-20.1h8.69L225.8,207.02z"/>
					</g>
				</g>
			</g>
			<g>
				<g transform="translate(423.088861, 47.055456)">
					<g>
						<path class="st1" d="M225.05,184.69h17.65v22.33h-7.04l-0.58-7.1l-1.96,4.44c-2.42,2.38-5.97,3.56-10.67,3.56
							c-6.08,0-10.92-2.02-14.5-6.06c-3.57-4.04-5.35-9.53-5.35-16.46c0-7.03,2.03-12.62,6.08-16.79c4.07-4.17,9.23-6.25,15.5-6.25
							c5.71,0,10.17,1.39,13.38,4.17c3.22,2.77,5.06,6.41,5.52,10.94l0.06,0.62h-8.75l-0.12-0.62c-1.14-5.71-4.54-8.56-10.21-8.56
							c-3.6,0-6.53,1.44-8.79,4.31c-2.27,2.88-3.4,6.77-3.4,11.67c0,5.29,1.09,9.37,3.29,12.23c2.21,2.85,5.08,4.27,8.62,4.27
							c2.83,0,5.19-0.86,7.06-2.6c1.89-1.73,3.05-4.15,3.48-7.23h-9.27V184.69z"/>
					</g>
				</g>
			</g>
		</g>
	</g>
</g>
</svg>
