<svg xmlns="http://www.w3.org/2000/svg" xmlns:xlink="http://www.w3.org/1999/xlink" width="1080" zoomAndPan="magnify" viewBox="0 0 810 1012.49997" height="1350" preserveAspectRatio="xMidYMid meet" version="1.0"><path fill="#282525" d="M 219.207031 423.40625 C 233.976562 423.40625 245.664062 427.074219 254.246094 434.378906 C 262.835938 441.699219 267.125 452.238281 267.125 465.992188 C 267.125 479.75 263.074219 489.652344 254.980469 496.871094 C 246.882812 504.109375 235.8125 507.933594 221.761719 508.367188 L 264.351562 570.339844 L 237.980469 570.339844 L 196.214844 508.367188 L 153.191406 508.367188 L 153.191406 570.339844 L 130.425781 570.339844 L 130.425781 423.40625 Z M 153.203125 489.851562 L 216.046875 489.851562 C 234.785156 489.851562 244.152344 481.984375 244.152344 466.214844 C 244.152344 450.449219 234.785156 442.578125 216.046875 442.578125 L 153.203125 442.578125 Z M 153.203125 489.851562 " fill-opacity="1" fill-rule="nonzero"/><path fill="#282525" d="M 319.757812 423.40625 L 342.746094 423.40625 L 342.746094 511.507812 C 342.746094 524.164062 346.570312 534.039062 354.238281 541.128906 C 361.894531 548.234375 372.625 551.773438 386.417969 551.773438 C 400.207031 551.773438 410.890625 548.234375 418.550781 541.128906 C 426.207031 534.039062 430.046875 524.164062 430.046875 511.507812 L 430.046875 423.40625 L 452.8125 423.40625 L 452.8125 510.472656 C 452.8125 522.695312 450.101562 533.34375 444.699219 542.414062 C 439.320312 551.460938 431.660156 558.445312 421.710938 563.359375 C 411.796875 568.285156 400.03125 570.746094 386.410156 570.746094 C 372.789062 570.746094 360.933594 568.292969 350.9375 563.359375 C 340.925781 558.445312 333.222656 551.460938 327.820312 542.414062 C 322.441406 533.34375 319.75 522.699219 319.75 510.472656 L 319.75 423.40625 Z M 319.757812 423.40625 " fill-opacity="1" fill-rule="nonzero"/><path fill="#282525" d="M 648.78125 423.742188 C 638.394531 423.476562 630.226562 425.40625 624.4375 429.472656 C 618.980469 433.300781 615.839844 439.488281 614.855469 448.386719 L 607.308594 514.359375 C 606.722656 518.71875 605.445312 521.914062 603.398438 524.25 C 600.5 527.550781 597.339844 528.246094 595.195312 528.246094 C 593.046875 528.246094 590.09375 527.546875 587.101562 524.191406 C 584.933594 521.695312 583.671875 518.21875 583.277344 513.8125 L 575.75 448.40625 C 574.773438 439.445312 571.757812 433.238281 566.519531 429.414062 C 561.023438 425.390625 553.035156 423.476562 542.761719 423.742188 C 531.230469 423.886719 523.054688 426.730469 518.386719 432.21875 C 513.542969 437.882812 511.089844 446.84375 511.089844 458.859375 L 511.089844 570.753906 L 533.941406 570.753906 L 533.941406 462.605469 C 533.941406 457.609375 534.449219 453.851562 535.488281 451.125 C 537.074219 446.964844 540.464844 444.574219 544.78125 444.574219 C 549.097656 444.574219 551.75 446.679688 553.011719 448.449219 C 554.390625 450.398438 555.21875 453.085938 555.625 456.925781 L 555.652344 457.410156 L 563.378906 522.636719 C 564.101562 528.371094 565.960938 533.039062 569.082031 536.855469 C 572.292969 540.785156 576.101562 543.648438 580.738281 545.609375 C 590.183594 549.628906 600.707031 549.613281 610.113281 545.609375 C 614.742188 543.648438 618.539062 540.785156 621.726562 536.863281 C 624.824219 533.058594 626.628906 528.421875 627.25 522.6875 L 634.796875 457.105469 C 635.355469 453.066406 636.230469 450.363281 637.566406 448.472656 C 639.363281 445.953125 642.210938 444.574219 645.601562 444.574219 C 650.117188 444.574219 653.664062 447.09375 655.089844 451.316406 C 656.015625 453.980469 656.480469 457.683594 656.480469 462.605469 L 656.480469 570.753906 L 679.5625 570.753906 L 679.5625 458.859375 C 679.5625 446.808594 677.214844 437.8125 672.582031 432.125 C 668.1875 426.695312 660.191406 423.878906 648.789062 423.742188 Z M 648.78125 423.742188 " fill-opacity="1" fill-rule="nonzero"/></svg>